<svg width="48" height="51" viewBox="0 0 48 51" fill="none" xmlns="http://www.w3.org/2000/svg">
<rect y="0.5" width="47.3743" height="50" rx="5" fill="#F3DEB3"/>
<path fill-rule="evenodd" clip-rule="evenodd" d="M24 17.0001C19.313 17.0001 15.5 20.8131 15.5 25.5001C15.5 30.1871 19.313 34.0001 24 34.0001C28.687 34.0001 32.5 30.1871 32.5 25.5001C32.5 20.8131 28.687 17.0001 24 17.0001ZM24 35.5001C18.486 35.5001 14 31.0141 14 25.5001C14 19.9861 18.486 15.5001 24 15.5001C29.514 15.5001 34 19.9861 34 25.5001C34 31.0141 29.514 35.5001 24 35.5001Z" fill="black"/>
<path fill-rule="evenodd" clip-rule="evenodd" d="M27.4311 29.1926C27.3001 29.1926 27.1681 29.1586 27.0471 29.0876L23.2771 26.8386C23.0511 26.7026 22.9111 26.4576 22.9111 26.1936V21.3456C22.9111 20.9316 23.2471 20.5956 23.6611 20.5956C24.0761 20.5956 24.4111 20.9316 24.4111 21.3456V25.7676L27.8161 27.7976C28.1711 28.0106 28.2881 28.4706 28.0761 28.8266C27.9351 29.0616 27.6861 29.1926 27.4311 29.1926Z" fill="black"/>
</svg>
